<svg xmlns="http://www.w3.org/2000/svg" viewBox="0 0 600 300" width="100%" height="100%">
  <!-- Background -->
  <rect width="600" height="300" fill="#f8fafc" rx="8"/>
  
  <!-- Slope -->
  <path d="M 50 250 L 520 80" stroke="#94a3b8" stroke-width="4" stroke-dasharray="6,6"/>
  <polygon points="50,250 520,80 520,250" fill="#e2e8f0" opacity="0.4"/>
  <text x="420" y="230" fill="#64748b" font-size="14" font-weight="bold">品质与效能提升斜坡 (Kaizen)</text>

  <!-- Deming Wheel (Circle) -->
  <g transform="translate(320, 145)">
    <circle cx="0" cy="0" r="65" fill="#ffffff" stroke="#2563eb" stroke-width="4"/>
    <!-- Quarter lines -->
    <line x1="-65" y1="0" x2="65" y2="0" stroke="#cbd5e1" stroke-width="2"/>
    <line x1="0" y1="-65" x2="0" y2="65" stroke="#cbd5e1" stroke-width="2"/>
    
    <!-- Quadrant Texts -->
    <text x="-32" y="-25" fill="#1e40af" font-size="15" font-weight="bold">Plan</text>
    <text x="12" y="-25" fill="#1e40af" font-size="15" font-weight="bold">Do</text>
    <text x="8" y="35" fill="#1e40af" font-size="15" font-weight="bold">Check</text>
    <text x="-38" y="35" fill="#1e40af" font-size="15" font-weight="bold">Act</text>
    
    <!-- Rotating Arrow Concept -->
    <path d="M 45 -20 A 50 50 0 0 1 20 45" fill="none" stroke="#3b82f6" stroke-width="3" marker-end="url(#arrow)"/>
  </g>

  <!-- SOP Wedge (止逆块) -->
  <polygon points="210,195 255,180 255,200" fill="#ef4444"/>
  <rect x="140" y="200" width="115" height="35" rx="4" fill="#fee2e2" stroke="#ef4444" stroke-width="1.5"/>
  <text x="150" y="222" fill="#991b1b" font-size="13" font-weight="bold">SOP 标准化止逆块</text>
  <text x="110" y="185" fill="#dc2626" font-size="12">防止质量向下滑落</text>

  <!-- Rolling Direction Arrow -->
  <line x1="320" y1="70" x2="390" y2="47" stroke="#16a34a" stroke-width="3" marker-end="url(#green-arrow)"/>
  <text x="310" y="40" fill="#15803d" font-size="14" font-weight="bold">螺旋上升演进 (Next PDCA)</text>

  <!-- Definitions -->
  <defs>
    <marker id="arrow" viewBox="0 0 10 10" refX="5" refY="5" markerWidth="6" markerHeight="6" orient="auto-start-reverse">
      <path d="M 0 0 L 10 5 L 0 10 z" fill="#3b82f6"/>
    </marker>
    <marker id="green-arrow" viewBox="0 0 10 10" refX="5" refY="5" markerWidth="6" markerHeight="6" orient="auto-start-reverse">
      <path d="M 0 0 L 10 5 L 0 10 z" fill="#16a34a"/>
    </marker>
  </defs>
</svg>