<svg viewBox="0 0 600 300" width="100%" height="100%" xmlns="http://www.w3.org/2000/svg">
  <!-- Background -->
  <rect x="0" y="0" width="600" height="300" fill="#f8fafc" rx="8"/>
  
  <!-- Flow lines -->
  <path d="M 50 150 L 150 150" stroke="#94a3b8" stroke-width="4" stroke-dasharray="5 5"/>
  <path d="M 270 150 L 350 150" stroke="#94a3b8" stroke-width="4"/>
  <path d="M 450 150 L 550 150" stroke="#94a3b8" stroke-width="4"/>

  <!-- Node 1: Fast Agent -->
  <rect x="50" y="100" width="100" height="100" rx="10" fill="#3b82f6" opacity="0.9"/>
  <text x="100" y="145" fill="#ffffff" font-size="14" font-weight="bold" text-anchor="middle">Retrieval Agent</text>
  <text x="100" y="165" fill="#e0f2fe" font-size="12" text-anchor="middle">速率: 100 req/s</text>
  <text x="100" y="185" fill="#93c5fd" font-size="10" text-anchor="middle">(非瓶颈节点)</text>

  <!-- Queue Buffer (Overflow Warning) -->
  <rect x="175" y="80" width="70" height="140" rx="6" fill="#fef2f2" stroke="#ef4444" stroke-width="2" stroke-dasharray="3 3"/>
  <text x="210" y="100" fill="#dc2626" font-size="11" font-weight="bold" text-anchor="middle">积压 Buffer</text>
  <!-- Queue Items -->
  <rect x="185" y="115" width="50" height="15" rx="3" fill="#fca5a5"/>
  <rect x="185" y="135" width="50" height="15" rx="3" fill="#fca5a5"/>
  <rect x="185" y="155" width="50" height="15" rx="3" fill="#fca5a5"/>
  <rect x="185" y="175" width="50" height="15" rx="3" fill="#ef4444"/>
  <text x="210" y="205" fill="#dc2626" font-size="10" text-anchor="middle">⚠️ 队列爆满</text>

  <!-- Node 2: Constraint Agent -->
  <rect x="330" y="100" width="120" height="100" rx="10" fill="#ef4444"/>
  <text x="390" y="140" fill="#ffffff" font-size="14" font-weight="bold" text-anchor="middle">Reasoning LLM</text>
  <text x="390" y="160" fill="#fee2e2" font-size="12" text-anchor="middle">速率: 5 req/s</text>
  <text x="390" y="180" fill="#fef08a" font-size="11" font-weight="bold" text-anchor="middle">🚨 系统瓶颈 (Constraint)</text>

  <!-- Output Node -->
  <rect x="490" y="115" width="80" height="70" rx="10" fill="#10b981"/>
  <text x="530" y="150" fill="#ffffff" font-size="13" font-weight="bold" text-anchor="middle">最终输出</text>
  <text x="530" y="170" fill="#d1fae5" font-size="11" text-anchor="middle">吞吐: 5 req/s</text>

  <!-- Annotations -->
  <text x="300" y="40" fill="#1e293b" font-size="15" font-weight="bold" text-anchor="middle">TOC 瓶颈视角：系统总吞吐量取决于最慢节点</text>
  <text x="300" y="265" fill="#64748b" font-size="12" text-anchor="middle">盲目提升上游 Retrieval 速度，只会加速 Buffer 溢出与内存/Token 浪费</text>
</svg>