<svg viewBox="0 0 600 300" width="100%" xmlns="http://www.w3.org/2000/svg">
  <rect width="600" height="300" fill="#0f172a" rx="12"/>
  
  <!-- Grid lines -->
  <line x1="60" y1="240" x2="540" y2="240" stroke="#334155" stroke-width="2"/>
  <line x1="60" y1="60" x2="60" y2="240" stroke="#334155" stroke-width="1" stroke-dasharray="4"/>
  
  <!-- Beta curve path -->
  <path d="M 80 240 Q 140 230 180 140 T 260 70 Q 340 100 420 190 T 520 240" fill="none" stroke="#38bdf8" stroke-width="3"/>
  <path d="M 80 240 Q 140 230 180 140 T 260 70 Q 340 100 420 190 T 520 240 L 520 240 L 80 240 Z" fill="#0284c7" fill-opacity="0.15"/>

  <!-- Vertical lines for O, M, E, P -->
  <!-- O: Optimistic -->
  <line x1="100" y1="230" x2="100" y2="245" stroke="#22c55e" stroke-width="2"/>
  <circle cx="100" cy="235" r="4" fill="#22c55e"/>
  <text x="100" y="265" fill="#22c55e" font-size="12" font-weight="bold" text-anchor="middle">O (乐观)</text>
  
  <!-- M: Most Likely -->
  <line x1="260" y1="70" x2="260" y2="240" stroke="#f59e0b" stroke-width="2" stroke-dasharray="3,3"/>
  <circle cx="260" cy="70" r="5" fill="#f59e0b"/>
  <text x="260" y="55" fill="#f59e0b" font-size="13" font-weight="bold" text-anchor="middle">M (最可能 - 峰值)</text>
  
  <!-- E: Expected -->
  <line x1="300" y1="90" x2="300" y2="240" stroke="#ec4899" stroke-width="2"/>
  <circle cx="300" cy="90" r="5" fill="#ec4899"/>
  <text x="300" y="265" fill="#ec4899" font-size="13" font-weight="bold" text-anchor="middle">E (期望值)</text>
  
  <!-- P: Pessimistic -->
  <line x1="500" y1="225" x2="500" y2="245" stroke="#ef4444" stroke-width="2"/>
  <circle cx="500" cy="230" r="4" fill="#ef4444"/>
  <text x="500" y="265" fill="#ef4444" font-size="12" font-weight="bold" text-anchor="middle">P (悲观)</text>

  <!-- Formula Callout -->
  <rect x="360" y="120" width="210" height="65" fill="#1e293b" stroke="#475569" stroke-width="1" rx="6"/>
  <text x="370" y="142" fill="#f8fafc" font-size="12" font-family="monospace">E = (O + 4M + P) / 6</text>
  <text x="370" y="165" fill="#94a3b8" font-size="12" font-family="monospace">σ = (P - O) / 6</text>

  <!-- Std Dev arrow -->
  <line x1="100" y1="210" x2="500" y2="210" stroke="#94a3b8" stroke-width="1.5" marker-end="url(#arrow)" marker-start="url(#arrow)"/>
  <text x="300" y="205" fill="#cbd5e1" font-size="11" text-anchor="middle">跨度大约为 6σ (包含 99.73% 概率)</text>

  <text x="20" y="30" fill="#f1f5f9" font-size="14" font-weight="bold">三点估算（PERT）概率分布与估算点</text>
</svg>